FFmpeg version SVN-r25716, Copyright (c) 2000-2010 the FFmpeg developers  built on Nov 10 2010 12:23:18 with gcc 4.1.2 20080704 (Red Hat 4.1.2-48)  configuration: --enable-libmp3lame --enable-shared --disable-mmx --arch=x86_64  libavutil     50.33. 0 / 50.33. 0  libavcore      0.12. 1 /  0.12. 1  libavcodec    52.94. 4 / 52.94. 4  libavformat   52.84. 0 / 52.84. 0  libavdevice   52. 2. 2 / 52. 2. 2  libavfilter    1.59. 0 /  1.59. 0  libswscale     0.12. 0 /  0.12. 0Seems stream 0 codec frame rate differs from container frame rate: 1000.00 (1000/1) -> 12.00 (12/1)Input #0, mov,mp4,m4a,3gp,3g2,mj2, from '/RAID10/data/converted_video_files/9058.mov':  Metadata:    major_brand     : qt      minor_version   : 537199360    compatible_brands: qt    Duration: 00:00:29.83, start: 0.000000, bitrate: 6626 kb/s    Stream #0.0(eng): Video: mpeg4, yuv420p, 640x480 [PAR 1:1 DAR 4:3], 6625 kb/s, 12 fps, 12 tbr, 60 tbn, 1k tbc[buffer @ 0x1d4cf6d0] w:640 h:480 pixfmt:yuv420pOutput #0, flv, to '/RAID10/data/converted_video_files/9058.flv':  Metadata:    encoder         : Lavf52.84.0    Stream #0.0(eng): Video: flv, yuv420p, 640x480 [PAR 1:1 DAR 4:3], q=2-31, 600 kb/s, 1k tbn, 24 tbcStream mapping:  Stream #0.0 -> #0.0Press [q] to stop encodingframe=   23 fps=  0 q=31.0 size=     795kB time=1.87 bitrate=3476.0kbits/s    frame=   49 fps= 48 q=24.8 size=    1065kB time=4.04 bitrate=2158.8kbits/s    frame=   75 fps= 49 q=31.0 size=    1344kB time=6.21 bitrate=1773.6kbits/s    frame=  101 fps= 49 q=31.0 size=    1608kB time=8.37 bitrate=1573.2kbits/s    frame=  127 fps= 50 q=31.0 size=    1942kB time=10.54 bitrate=1509.0kbits/s    frame=  156 fps= 51 q=31.0 size=    2209kB time=12.96 bitrate=1396.7kbits/s    frame=  185 fps= 52 q=31.0 size=    2488kB time=15.37 bitrate=1325.7kbits/s    frame=  214 fps= 52 q=31.0 size=    2761kB time=17.79 bitrate=1271.4kbits/s    frame=  241 fps= 52 q=31.0 size=    3021kB time=20.04 bitrate=1234.7kbits/s    frame=  269 fps= 53 q=24.8 size=    3304kB time=22.37 bitrate=1209.6kbits/s    frame=  296 fps= 53 q=31.0 size=    3571kB time=24.62 bitrate=1187.9kbits/s    frame=  323 fps= 53 q=31.0 size=    3844kB time=26.87 bitrate=1171.8kbits/s    frame=  350 fps= 53 q=31.0 size=    4128kB time=29.12 bitrate=1161.1kbits/s    frame=  358 fps= 53 q=24.8 Lsize=    4213kB time=29.79 bitrate=1158.3kbits/s    video:4207kB audio:0kB global headers:0kB muxing overhead 0.137846%